<?xml version="1.0"?>
<svg xmlns="http://www.w3.org/2000/svg" id="Capa_1" enable-background="new 0 0 512 512" height="512px" viewBox="0 0 512 512" width="512px" class=""><g><g><g><path d="m256 479.032c-3.705 0-7.329-1.286-10.205-3.622-27.326-22.2-52.908-42.083-75.479-59.626-53.389-41.496-95.554-74.268-124.415-109.078-31.744-38.289-45.901-77.262-45.901-126.367 0-50.15 25.223-96.425 67.471-123.785 3.477-2.25 8.12-1.259 10.372 2.219 2.251 3.477 1.258 8.12-2.219 10.372-37.961 24.583-60.624 66.151-60.624 111.194 0 45.364 13.092 81.385 42.45 116.794 27.813 33.547 69.407 65.875 122.066 106.804 22.637 17.594 48.287 37.53 75.737 59.831.27.219.555.265.748.265.192 0 .478-.046.749-.266 27.449-22.3 53.099-42.236 75.73-59.826 52.665-40.934 94.259-73.262 122.072-106.809 29.358-35.409 42.45-71.43 42.45-116.794 0-72.99-59.381-132.371-132.371-132.371-40.073 0-77.544 17.854-102.805 48.983-1.424 1.755-3.563 2.774-5.824 2.774-2.26 0-4.4-1.019-5.824-2.774-25.261-31.129-62.732-48.983-102.805-48.983-14.334 0-28.436 2.288-41.914 6.799-3.925 1.314-8.177-.804-9.493-4.732-1.314-3.928.804-8.178 4.731-9.493 15.016-5.026 30.719-7.574 46.675-7.574 41.63 0 80.735 17.305 108.629 47.776 27.894-30.471 66.999-47.776 108.629-47.776 81.26.001 147.37 66.111 147.37 147.372 0 49.105-14.157 88.079-45.902 126.368-28.861 34.81-71.026 67.582-124.409 109.073-22.577 17.547-48.159 37.431-75.484 59.629-2.876 2.337-6.5 3.623-10.205 3.623zm60.5-133.871c-21.531 0-42.36-5.905-60.542-17.12-17.597 10.853-38.31 17.12-60.458 17.12-63.687 0-115.5-51.813-115.5-115.5s51.813-115.5 115.5-115.5c21.531 0 42.36 5.905 60.542 17.121 17.597-10.854 38.31-17.121 60.458-17.121 63.687 0 115.5 51.813 115.5 115.5s-51.813 115.5-115.5 115.5zm-47.178-26.735c14.458 7.704 30.577 11.736 47.178 11.736 55.416 0 100.5-45.084 100.5-100.5s-45.084-100.5-100.5-100.5-100.5 45.083-100.5 100.499c0 12.263 2.181 24.239 6.483 35.595 1.467 3.874-.483 8.204-4.356 9.671-3.874 1.467-8.204-.484-9.671-4.356-4.947-13.06-7.456-26.824-7.456-40.909 0-24.322 7.558-46.913 20.446-65.547-8.22-3.256-17.049-4.953-25.946-4.953-38.874 0-70.5 31.626-70.5 70.5s31.626 70.5 70.5 70.5c19.952 0 37.995-8.331 50.833-21.697-9.926-14.265-15.333-31.365-15.333-48.804 0-47.145 38.355-85.5 85.5-85.5s85.5 38.355 85.5 85.5-38.355 85.5-85.5 85.5c-12.304 0-24.503-2.677-35.628-7.784-3.593 3.943-7.449 7.633-11.55 11.049zm-73.822-189.265c-55.416 0-100.5 45.084-100.5 100.5s45.084 100.5 100.5 100.5 100.5-45.084 100.5-100.5c0-12.263-2.181-24.239-6.483-35.595-1.467-3.874.483-8.204 4.356-9.671 3.875-1.465 8.203.483 9.671 4.356 4.947 13.06 7.456 26.824 7.456 40.909 0 24.322-7.557 46.913-20.446 65.547 8.22 3.256 17.049 4.953 25.946 4.953 38.874 0 70.5-31.626 70.5-70.5s-31.626-70.5-70.5-70.5c-19.952 0-37.995 8.331-50.832 21.697 9.925 14.266 15.332 31.365 15.332 48.804 0 47.145-38.355 85.5-85.5 85.5s-85.5-38.355-85.5-85.5 38.355-85.5 85.5-85.5c12.304 0 24.503 2.677 35.628 7.784 3.592-3.942 7.449-7.633 11.549-11.048-14.457-7.703-30.576-11.736-47.177-11.736zm60.493 64.349c-6.344 10.577-9.993 22.945-9.993 36.151 0 12.749 3.505 25.277 10.007 36.151 6.344-10.577 9.993-22.945 9.993-36.151 0-12.748-3.505-25.277-10.007-36.151z" data-original="#000000" class="active-path" data-old_color="#000000" fill="#D4B97F"/></g></g></g> </svg>
